<svg xmlns="http://www.w3.org/2000/svg" width="48" height="48" viewBox="0 0 48 48">
  <circle cx="24" cy="24" r="22" fill="#e60023"/>
  <path d="M24 10c-7.7 0-14 6.3-14 14 0 5.9 3.7 11 9 13-.1-1.1 0-2.5.3-3.7l1.8-7.5s-.4-.9-.4-2.2c0-2.1 1.2-3.6 2.7-3.6 1.3 0 1.9 1 1.9 2.1 0 1.3-.8 3.2-1.2 5-.4 1.4.7 2.6 2.2 2.6 2.6 0 4.4-3.4 4.4-7.4 0-3.1-2.1-5.4-5.8-5.4-4.2 0-6.9 3.2-6.9 6.7 0 1.2.4 2.1.9 2.7.3.3.3.4.2.8l-.3 1.1c-.1.4-.4.5-.7.4-2-.8-2.9-3-2.9-5.4 0-4 3.4-8.9 10.1-8.9 5.4 0 9 3.9 9 8.2 0 5.5-3.1 9.7-7.6 9.7-1.5 0-3-.8-3.5-1.7l-1 3.8c-.3 1.2-1 2.5-1.6 3.4 1.4.4 2.9.6 4.4.6 7.7 0 14-6.3 14-14S31.7 10 24 10z" fill="white"/>
</svg>
